<?xml version="1.0" encoding="UTF-8" standalone="no"?>
<!DOCTYPE svg PUBLIC "-//W3C//DTD SVG 1.1//EN" "http://www.w3.org/Graphics/SVG/1.1/DTD/svg11.dtd">
<svg xmlns="http://www.w3.org/2000/svg" version="1.1" xmlns:xl="http://www.w3.org/1999/xlink" xmlns:dc="http://purl.org/dc/elements/1.1/" viewBox="667 526 286 180" width="286" height="180">
  <defs/>
  <metadata> Produced by OmniGraffle 7.10.2 
    <dc:date>2019-05-09 04:38:56 +0000</dc:date>
  </metadata>
  <g id="Canvas_1" stroke="none" stroke-dasharray="none" fill="none" fill-opacity="1" stroke-opacity="1">
    <title>Canvas 1</title>
    <g id="Canvas_1: Layer 1">
      <title>Layer 1</title>
      <g id="Group_182">
        <g id="Group_180">
          <g id="Group_177">
            <g id="Group_178">
              <g id="Graphic_179">
                <path d="M 924.0088 539.2682 C 924.0083 539.2682 924.0074 539.2682 924.0069 539.2682 L 695.9931 539.2682 C 693.8226 539.2679 692.06235 540.4125 692.06186 541.82465 C 692.06186 541.825 692.06186 541.8256 692.06186 541.82593 L 692.06186 592.98046 L 699.9244 592.98046 L 699.9244 544.38366 L 920.0756 544.38366 L 920.0756 600.65364 L 782.4811 600.65364 L 782.4811 605.7691 L 924.0069 605.7691 C 926.1774 605.7694 927.9377 604.6248 927.9381 603.21265 C 927.9381 603.2123 927.9381 603.2117 927.9381 603.2114 L 927.9381 541.82593 C 927.9386 540.41375 926.1794 539.2685 924.0088 539.2682 Z" fill="black"/>
              </g>
            </g>
          </g>
          <g id="Group_174">
            <g id="Group_175">
              <g id="Graphic_176">
                <rect x="821.7938" y="552.05684" width="78.62543" height="5.115453" fill="black"/>
              </g>
            </g>
          </g>
          <g id="Group_171">
            <g id="Group_172">
              <g id="Graphic_173">
                <rect x="833.5876" y="567.4032" width="78.62543" height="5.115453" fill="black"/>
              </g>
            </g>
          </g>
          <g id="Group_168">
            <g id="Group_169">
              <g id="Graphic_170">
                <rect x="817.8625" y="582.74956" width="78.62543" height="5.115453" fill="black"/>
              </g>
            </g>
          </g>
          <g id="Group_165">
            <g id="Group_166">
              <g id="Graphic_167">
                <path d="M 817.549 561.3203 C 814.8576 557.1112 807.4314 555.11876 800.9625 556.86984 C 800.8519 556.8999 800.7419 556.9306 800.6328 556.96256 L 768.75605 567.721 C 770.0131 566.02586 770.673 564.1696 770.6873 562.28774 C 770.6873 555.2249 761.8866 549.4991 751.0309 549.4991 C 740.1752 549.4991 731.3746 555.2249 731.3746 562.28774 C 731.3893 565.06384 732.80604 567.76 735.4066 569.9609 L 735.2429 569.9609 C 724.084 570.0095 714.1227 574.52295 710.18305 581.31595 L 699.6885 604.8499 C 697.1902 609.0721 700.4256 613.8128 706.9157 615.43826 C 709.8749 616.17936 713.1551 616.1669 716.1011 615.4031 C 719.4859 614.5159 722.1199 612.7242 723.3322 610.4849 L 727.4433 601.9725 L 727.4433 638.9901 C 724.0604 637.2985 719.9164 636.3768 715.6495 636.36686 C 704.81 636.3563 696.00934 642.0648 695.9931 649.11744 C 695.9853 652.5713 698.1278 655.87975 701.9328 658.2885 C 695.89435 660.2957 692.08544 664.3292 692.06186 668.7406 L 692.06186 690.1741 C 692.0614 691.58625 693.8206 692.7315 695.9912 692.7318 C 695.99165 692.7318 695.9926 692.7318 695.9931 692.7318 L 735.3058 692.7318 C 737.4764 692.7321 739.2366 691.5875 739.2371 690.17535 C 739.2371 690.175 739.2371 690.1744 739.2371 690.1741 L 739.2371 668.7406 C 739.21795 665.1154 736.6292 661.6989 732.2218 659.48135 L 761.978 659.48135 C 757.5701 661.6989 754.9814 665.1154 754.9627 668.7406 L 754.9627 690.1741 C 754.9622 691.58625 756.7214 692.7315 758.892 692.7318 C 758.8925 692.7318 758.8935 692.7318 758.894 692.7318 L 798.2067 692.7318 C 800.3772 692.7321 802.1375 691.5875 802.13795 690.17535 C 802.13795 690.175 802.13795 690.1744 802.13795 690.1741 L 802.13795 668.7406 C 802.1144 664.3292 798.30545 660.2957 792.267 658.2885 C 800.0288 653.3594 800.1797 645.2697 792.6036 640.21975 C 787.9382 637.1099 781.1631 635.7559 774.61905 636.6255 L 774.61905 584.30306 L 810.7086 572.1113 C 817.1775 570.3606 820.24 565.529 817.549 561.3203 Z M 751.0309 554.61456 C 757.54455 554.61456 762.8247 558.0499 762.8247 562.28774 C 762.8247 566.5256 757.54455 569.9609 751.0309 569.9609 C 744.52025 569.95645 739.244 566.52366 739.2371 562.28774 C 739.2371 558.0499 744.5173 554.61456 751.0309 554.61456 Z M 715.6495 641.4823 C 722.1631 641.4823 727.4433 644.91766 727.4433 649.1555 C 727.4433 653.3933 722.1631 656.8287 715.6495 656.8287 C 709.1359 656.8287 703.8557 653.3933 703.8557 649.1555 C 703.86255 644.9196 709.1388 641.4871 715.6495 641.4823 Z M 731.3746 687.61634 L 699.9244 687.61634 L 699.9244 668.7406 C 699.9323 665.0412 704.5402 662.04355 710.2268 662.0391 L 721.0722 662.0391 C 726.7583 662.04355 731.3667 665.0412 731.3746 668.7406 Z M 794.2749 668.7406 L 794.2749 687.61634 L 762.8247 687.61634 L 762.8247 668.7406 C 762.8326 665.0412 767.44055 662.04355 773.1271 662.0391 L 783.9725 662.0391 C 789.6591 662.04355 794.26705 665.0412 794.2749 668.7406 Z M 778.5498 641.4823 C 785.0605 641.4868 790.3368 644.9196 790.3436 649.1555 C 790.3436 653.3933 785.0635 656.8287 778.5498 656.8287 C 772.0362 656.8287 766.756 653.3933 766.756 649.1555 C 766.756 644.91766 772.0362 641.4823 778.5498 641.4823 Z M 810.3553 565.5872 C 809.829 566.4658 808.7484 567.1554 807.3877 567.4806 L 768.8774 580.4789 C 767.5742 580.91886 766.756 581.79456 766.756 582.74956 L 766.756 638.9901 C 759.39225 642.5326 756.84135 648.9438 760.639 654.3659 L 754.9622 654.3659 L 754.9622 610.88455 L 747.0997 610.88455 L 747.0997 654.3659 L 733.5604 654.3659 C 734.6788 652.7577 735.268 651.0153 735.2911 649.25044 L 735.3058 649.25044 L 735.3058 585.3073 C 735.30535 583.89446 733.5446 582.74956 731.3736 582.7499 C 729.6571 582.7502 728.1391 583.475 727.6241 584.5406 L 715.8854 608.8438 C 714.9959 610.4398 712.2858 611.2647 709.8327 610.6857 C 709.6607 610.6451 709.4921 610.5981 709.328 610.5447 C 707.06015 609.7822 706.0975 608.002 707.1324 606.48334 L 717.6264 582.9494 C 720.45645 578.2208 727.4428 575.09844 735.24245 575.0764 L 763.0783 575.0764 C 763.7083 575.077 764.3294 574.9782 764.8887 574.7893 L 803.9616 561.59364 C 806.3056 560.9574 809.0074 561.60835 810.1484 563.0848 C 810.7533 563.863 810.8285 564.771 810.3553 565.5872 Z" fill="black"/>
              </g>
            </g>
          </g>
          <g id="Group_162">
            <g id="Group_163">
              <g id="Graphic_164">
                <path d="M 855.1669 658.2885 C 862.9424 653.35975 863.1046 645.26295 855.529 640.2041 C 847.9535 635.1452 835.5085 635.0397 827.733 639.96845 C 819.9574 644.8972 819.7953 652.994 827.3708 658.05286 C 827.4902 658.1325 827.6111 658.2111 827.7335 658.2885 C 821.6955 660.2957 817.8861 664.3292 817.8625 668.7406 L 817.8625 690.1741 C 817.8621 691.58625 819.6213 692.7315 821.7918 692.7318 C 821.7923 692.7318 821.7933 692.7318 821.7938 692.7318 L 861.1065 692.7318 C 863.2771 692.7321 865.0373 691.5875 865.0378 690.17535 C 865.0378 690.175 865.0378 690.1744 865.0378 690.1741 L 865.0378 668.7406 C 865.0142 664.3292 861.2053 660.2957 855.1669 658.2885 Z M 841.4502 641.4823 C 847.9638 641.4823 853.244 644.91766 853.244 649.1555 C 853.244 653.3933 847.9638 656.8287 841.4502 656.8287 C 834.9365 656.8287 829.6564 653.3933 829.6564 649.1555 C 829.6632 644.9196 834.9395 641.4871 841.4502 641.4823 Z M 857.1753 687.61634 L 825.7251 687.61634 L 825.7251 668.7406 C 825.7329 665.0412 830.3409 662.04355 836.0275 662.0391 L 846.8729 662.0391 C 852.559 662.04355 857.1674 665.0412 857.1753 668.7406 L 857.1753 687.61634 Z" fill="black"/>
              </g>
            </g>
          </g>
          <g id="Group_159">
            <g id="Group_160">
              <g id="Graphic_161">
                <path d="M 918.0672 658.2885 C 925.8428 653.35975 926.0049 645.26295 918.4294 640.2041 C 910.8538 635.1452 898.4089 635.0397 890.6333 639.96845 C 882.8578 644.8972 882.6956 652.994 890.2712 658.05286 C 890.3906 658.1325 890.5115 658.2111 890.6338 658.2885 C 884.5959 660.2957 880.7865 664.3292 880.7629 668.7406 L 880.7629 690.1741 C 880.7624 691.58625 882.5216 692.7315 884.6922 692.7318 C 884.6927 692.7318 884.6937 692.7318 884.6942 692.7318 L 924.0069 692.7318 C 926.1774 692.7321 927.9377 691.5875 927.9381 690.17535 C 927.9381 690.175 927.9381 690.1744 927.9381 690.1741 L 927.9381 668.7406 C 927.9146 664.3292 924.1056 660.2957 918.0672 658.2885 Z M 904.3505 641.4823 C 910.8641 641.4823 916.1443 644.91766 916.1443 649.1555 C 916.1443 653.3933 910.8641 656.8287 904.3505 656.8287 C 897.8369 656.8287 892.5567 653.3933 892.5567 649.1555 C 892.5636 644.9196 897.8398 641.4871 904.3505 641.4823 Z M 920.0756 687.61634 L 888.6254 687.61634 L 888.6254 668.7406 C 888.6333 665.0412 893.2412 662.04355 898.9278 662.0391 L 909.7732 662.0391 C 915.4593 662.04355 920.0677 665.0412 920.0756 668.7406 L 920.0756 687.61634 Z" fill="black"/>
              </g>
            </g>
          </g>
        </g>
        <g id="Graphic_181"/>
      </g>
    </g>
  </g>
</svg>
