<svg width="20" height="27" viewBox="0 0 20 27" fill="none" xmlns="http://www.w3.org/2000/svg">
<path d="M19.2469 0.00562134L14.4498 0C9.06039 0 5.57755 2.60805 5.57755 6.64473V9.7084H0.754294C0.337512 9.7084 0 9.95503 0 10.2592V14.6982C0 15.0024 0.337891 15.2487 0.754294 15.2487H5.57755V26.4495C5.57755 26.7537 5.91506 27 6.33185 27H12.6248C13.0416 27 13.3791 26.7534 13.3791 26.4495V15.2487H19.0186C19.4354 15.2487 19.7729 15.0024 19.7729 14.6982L19.7752 10.2592C19.7752 10.1132 19.6956 9.9733 19.5544 9.86992C19.4131 9.76654 19.2207 9.7084 19.0206 9.7084H13.3791V7.1113C13.3791 5.86303 13.7867 5.22935 16.0145 5.22935L19.2461 5.2285C19.6625 5.2285 20 4.98188 20 4.67794V0.556183C20 0.252523 19.6629 0.00618534 19.2469 0.00562134Z" fill="white"/>
</svg>
