<?xml version="1.0" encoding="UTF-8" standalone="no"?>
<!DOCTYPE svg PUBLIC "-//W3C//DTD SVG 1.1//EN" "http://www.w3.org/Graphics/SVG/1.1/DTD/svg11.dtd">
<svg xmlns="http://www.w3.org/2000/svg" version="1.1" xmlns:xl="http://www.w3.org/1999/xlink" xmlns:dc="http://purl.org/dc/elements/1.1/" viewBox="270 231 286 180" width="286" height="180">
  <defs/>
  <metadata> Produced by OmniGraffle 7.10.2 
    <dc:date>2019-05-09 03:43:11 +0000</dc:date>
  </metadata>
  <g id="Canvas_1" stroke="none" stroke-dasharray="none" fill="none" fill-opacity="1" stroke-opacity="1">
    <title>Canvas 1</title>
    <g id="Canvas_1: Layer 1">
      <title>Layer 1</title>
      <g id="Group_2">
        <g id="Group_4">
          <g id="Group_15">
            <g id="Group_16">
              <g id="Graphic_22">
                <path d="M 316.1828 333.64293 C 318.5732 333.64293 320.51122 332.4291 320.51122 330.93195 C 320.45102 313.92133 332.77296 297.82116 353.98315 287.19622 C 355.79526 286.38123 356.21004 284.80038 354.9088 283.6654 C 354.8022 283.57236 354.6857 283.48415 354.5603 283.40113 C 353.0398 282.26132 350.3374 282.10012 348.50096 283.03964 C 325.33285 294.70234 311.85604 312.3152 311.85494 330.93195 C 311.85494 332.42944 313.79243 333.64293 316.1828 333.64293 Z" fill="black"/>
              </g>
              <g id="Graphic_21">
                <path d="M 438.529 384.0653 C 420.06485 387.859 400.1487 387.859 381.6846 384.0653 C 379.4102 383.6042 376.9701 384.38493 376.23333 385.8091 C 376.2223 385.8302 376.2118 385.8513 376.20185 385.8724 C 375.61254 387.3114 376.8602 388.79576 379.0871 389.30634 C 389.0584 391.33655 399.4771 392.37327 409.9621 392.3788 C 420.66024 392.3854 431.28715 391.2864 441.4142 389.12577 C 443.53784 388.43877 444.3707 386.80326 443.27384 385.4732 C 442.3791 384.38805 440.4361 383.81174 438.529 384.0653 Z" fill="black"/>
              </g>
              <g id="Graphic_20">
                <path d="M 461.55736 285.1847 C 461.5756 285.19265 461.59436 285.2006 461.61314 285.20856 C 485.2739 295.72627 499.35605 312.75973 499.4135 330.9323 C 499.4135 332.42944 501.3515 333.64328 503.7419 333.64328 C 506.1323 333.64328 508.0703 332.42944 508.0703 330.9323 C 507.9908 310.9644 492.5141 292.2508 466.5187 280.6905 C 464.5006 279.92705 461.8882 280.23872 460.4594 281.41347 C 459.09905 282.64495 459.59115 284.33338 461.55736 285.1847 Z" fill="black"/>
              </g>
              <g id="Group_17">
                <g id="Graphic_19">
                  <ellipse cx="496.5277" cy="356.5951" rx="21.6415695563821" ry="13.5545601093232" fill="black"/>
                </g>
                <g id="Graphic_18">
                  <path d="M 504.91333 373.40715 C 504.81116 373.40542 504.709 373.4037 504.6068 373.40266 L 488.448 373.40266 C 471.8772 373.59776 458.69697 382.16966 459.00847 392.5483 C 459.0101 392.6123 459.0129 392.6763 459.01565 392.7403 L 459.01565 395.63184 C 459.01565 397.0778 459.8811 398.7043 462.47805 398.7043 L 530.57675 398.7043 C 533.1737 398.7043 534.03916 397.0778 534.03916 395.63184 L 534.03916 392.7403 C 534.5202 382.36407 521.4803 373.70845 504.91333 373.40715 Z" fill="black"/>
                </g>
              </g>
            </g>
          </g>
          <g id="Group_9">
            <g id="Group_10">
              <g id="Group_11">
                <g id="Graphic_14">
                  <path d="M 363.2807 389.24137 C 355.77706 386.31254 350.037 384.6862 344.93875 384.04425 L 345.49416 383.47833 C 345.71174 383.25572 345.78565 382.97453 345.69683 382.70827 L 344.53475 379.2636 C 347.6468 376.00915 349.48545 371.94385 349.48545 368.0891 L 349.48545 364.37817 L 350.7362 364.37817 L 353.23786 364.37817 C 353.92962 364.37817 354.4886 363.96258 354.4886 363.4505 C 354.4886 362.9374 353.92947 362.5228 353.23786 362.5228 L 351.9871 362.5228 L 351.9871 361.59513 C 351.9871 359.0105 351.1666 356.57607 349.69557 354.4108 L 338.46444 356.01203 C 338.3856 356.0232 338.30677 356.02872 338.2281 356.02872 C 337.9004 356.02872 337.58147 355.93223 337.34498 355.7578 C 337.0523 355.53985 336.9222 355.22904 336.9997 354.9265 L 339.051 346.93872 C 337.9916 346.58525 336.88464 346.27908 335.7263 346.03514 L 335.7263 345.8385 C 335.7263 344.29573 334.03398 343.04055 331.9539 343.04055 L 326.9919 343.04055 C 324.91048 343.04055 323.21817 344.29573 323.21817 345.8386 L 323.21817 346.03525 C 322.06115 346.2793 320.9542 346.58536 319.8948 346.93883 L 321.9461 354.92663 C 322.0236 355.22904 321.8935 355.53985 321.60082 355.75792 C 321.36447 355.93234 321.0454 356.02883 320.7165 356.02883 C 320.6377 356.02883 320.55885 356.0233 320.48017 356.01214 L 309.25037 354.4109 C 307.77936 356.57618 306.95765 359.0106 306.95765 361.59524 L 306.95765 362.5229 L 305.7069 362.5229 C 305.01647 362.5229 304.45614 362.93763 304.45614 363.4506 C 304.45614 363.9627 305.01647 364.3783 305.7069 364.3783 L 308.20855 364.3783 L 309.4593 364.3783 L 309.4593 368.0892 C 309.4593 371.94396 311.2993 376.00926 314.41 379.2637 L 313.24926 382.7084 C 313.15925 382.97465 313.2342 383.25572 313.45193 383.47844 L 314.00734 384.04436 C 308.90896 384.6863 303.16903 386.31266 295.6654 389.2415 C 293.3724 390.1358 291.94773 391.88636 291.94773 393.8096 L 291.94773 397.7765 C 291.94773 398.2886 292.50806 398.7042 293.1985 398.7042 L 323.21817 398.7042 L 323.21936 398.7042 L 323.68715 398.7042 C 323.68834 398.7042 323.68834 398.7033 323.68968 398.7033 L 335.20217 398.6959 C 335.22214 398.6968 335.2384 398.7043 335.2585 398.7043 L 365.74597 398.7043 C 366.43774 398.7043 366.99672 398.2887 366.99672 397.7766 L 366.99672 393.8097 C 366.99687 391.88636 365.5734 390.1358 363.2807 389.24137 Z M 311.9608 368.0892 L 311.9608 364.3783 L 346.98365 364.3783 L 346.98365 368.0892 C 346.98365 372.2668 344.99106 375.9434 342.04412 378.70055 C 342.0003 378.73206 341.9428 378.7516 341.90523 378.78776 C 341.475 379.19595 341.02972 379.58093 340.57192 379.9428 C 340.5694 379.9447 340.56686 379.94656 340.56447 379.94833 C 340.26047 380.18674 339.9441 380.3992 339.6289 380.61726 C 336.57184 382.66196 332.94074 383.86065 329.47223 383.86065 C 326.0049 383.86065 322.3738 382.66207 319.31555 380.61726 C 319.00156 380.3993 318.68518 380.18674 318.38117 379.94833 C 318.37864 379.94645 318.3761 379.94457 318.37372 379.9428 C 317.91592 379.58104 317.46945 379.19595 317.03907 378.78776 C 317.0015 378.7516 316.9452 378.73206 316.90152 378.70055 C 313.9546 375.9434 311.9608 372.2668 311.9608 368.0892 Z M 315.81827 382.7371 L 316.37994 381.07275 C 316.38247 381.0755 316.3862 381.0774 316.38873 381.07927 C 319.41197 383.51823 323.25826 385.23642 327.5935 385.62704 C 327.59602 385.62704 327.59856 385.6279 327.60094 385.6279 L 324.2062 391.2917 Z M 324.74536 396.84784 L 325.49465 394.06557 L 333.45115 394.06557 L 333.76886 395.24106 L 334.20044 396.84143 Z M 334.73945 391.2917 L 331.3447 385.6279 C 331.34724 385.6279 331.34977 385.62704 331.35215 385.62704 C 335.68754 385.23642 339.53383 383.51834 342.5569 381.07927 C 342.55945 381.0774 342.56317 381.0755 342.5657 381.07275 L 343.12737 382.7371 Z" fill="black"/>
                </g>
                <g id="Graphic_13">
                  <path d="M 341.36637 347.8392 L 339.80162 353.93064 L 348.36092 352.70972 C 346.58352 350.75135 344.20705 349.09163 341.36637 347.8392 Z" fill="black"/>
                </g>
                <g id="Graphic_12">
                  <path d="M 317.57913 347.8392 C 314.73845 349.09163 312.36198 350.75135 310.58458 352.70983 L 319.14387 353.93075 Z" fill="black"/>
                </g>
              </g>
            </g>
          </g>
          <g id="Group_5">
            <g id="Group_6">
              <g id="Graphic_8">
                <path d="M 391.5103 266.8961 C 392.3207 270.1923 396.3913 274.38748 403.07734 275.8627 C 405.82175 276.46202 408.82403 276.47354 411.56844 275.85118 C 418.144 274.36443 422.3435 270.18078 423.17233 266.8961 C 424.05644 266.85 425.21683 266.0778 426.4693 263.30022 C 428.18227 259.50843 426.3588 258.9437 424.8116 259.0359 C 425.1063 258.51726 425.32734 257.9871 425.4747 257.48 C 428.09017 247.649 420.35425 247.31475 420.35425 247.31475 C 420.35425 247.31475 419.0649 245.77038 415.69427 244.60633 C 413.42875 243.765 410.2791 243.11958 406.13487 243.33856 C 404.7903 243.37313 403.5194 243.546 402.32217 243.78804 C 400.7934 244.11074 399.39356 244.58328 398.12266 245.1365 C 396.57548 245.74733 395.10197 246.508 393.81264 247.37238 C 391.76815 248.68625 389.9447 250.38046 389.15267 252.48957 C 388.4896 254.06853 388.63694 255.71663 389.1895 257.49152 C 389.33686 258.01015 389.5579 258.5288 389.8526 259.04742 C 388.3054 258.95522 386.48193 259.51995 388.1949 263.31175 C 389.4658 266.0778 390.6262 266.85 391.5103 266.8961 Z" fill="black"/>
              </g>
              <g id="Graphic_7">
                <path d="M 437.72325 279.7928 C 428.3112 278.29453 420.66737 274.92916 420.66737 274.92916 L 414.69965 286.7425 L 413.5761 288.96687 L 413.5577 288.9323 L 412.5815 290.82243 L 409.43185 285.2327 C 417.1678 278.47893 407.86625 278.54808 407.3505 278.5596 C 406.8348 278.54808 397.53326 278.47893 405.2692 285.2327 L 402.11956 290.82243 L 401.14336 288.9323 L 401.12494 288.96687 L 400.0014 286.7425 L 394.01525 274.92916 C 394.01525 274.92916 386.3714 278.29453 376.95937 279.7928 C 369.9418 280.91075 369.61024 285.98184 369.88652 288.4828 C 369.88652 288.4828 370.29174 291.88275 370.69695 293.38103 C 370.69695 293.38103 384.4006 298.9477 407.3505 298.95923 C 430.30044 298.95923 444.0041 293.38103 444.0041 293.38103 C 444.4093 291.88275 444.8145 288.4828 444.8145 288.4828 C 445.0724 285.98184 444.74084 280.91075 437.72325 279.7928 Z" fill="black"/>
              </g>
            </g>
          </g>
        </g>
        <g id="Graphic_3"/>
      </g>
    </g>
  </g>
</svg>
