<svg width="27" height="27" viewBox="0 0 27 27" fill="none" xmlns="http://www.w3.org/2000/svg">
<g clip-path="url(#clip0)">
<path d="M19.5488 0H7.45087C3.34247 0 0 3.34264 0 7.45102V19.549C0 23.6576 3.34247 27 7.45087 27H19.5488C23.6575 27 27 23.6574 27 19.549V7.45102C27.0002 3.34264 23.6575 0 19.5488 0ZM24.6046 19.549C24.6046 22.3366 22.3366 24.6044 19.549 24.6044H7.45087C4.66339 24.6046 2.39559 22.3366 2.39559 19.549V7.45102C2.39559 4.66354 4.66339 2.39557 7.45087 2.39557H19.5488C22.3365 2.39557 24.6044 4.66354 24.6044 7.45102V19.549H24.6046Z" fill="white"/>
<path d="M13.4999 6.54321C9.66368 6.54321 6.54272 9.66417 6.54272 13.5005C6.54272 17.3366 9.66368 20.4573 13.4999 20.4573C17.3362 20.4573 20.4572 17.3366 20.4572 13.5005C20.4572 9.66417 17.3362 6.54321 13.4999 6.54321ZM13.4999 18.0616C10.9848 18.0616 8.93831 16.0155 8.93831 13.5003C8.93831 10.9849 10.9846 8.93864 13.4999 8.93864C16.0153 8.93864 18.0616 10.9849 18.0616 13.5003C18.0616 16.0155 16.0151 18.0616 13.4999 18.0616Z" fill="white"/>
<path d="M20.7489 4.51196C20.2874 4.51196 19.834 4.69882 19.508 5.0262C19.1805 5.352 18.9922 5.80557 18.9922 6.26871C18.9922 6.73044 19.1806 7.18382 19.508 7.51121C19.8338 7.83701 20.2874 8.02548 20.7489 8.02548C21.2121 8.02548 21.6641 7.83701 21.9915 7.51121C22.3189 7.18382 22.5057 6.73026 22.5057 6.26871C22.5057 5.80557 22.3189 5.352 21.9915 5.0262C21.6657 4.69882 21.2121 4.51196 20.7489 4.51196Z" fill="white"/>
</g>
<defs>
<clipPath id="clip0">
<rect width="27" height="27" fill="white"/>
</clipPath>
</defs>
</svg>
