<?xml version="1.0" encoding="UTF-8" standalone="no"?>
<!DOCTYPE svg PUBLIC "-//W3C//DTD SVG 1.1//EN" "http://www.w3.org/Graphics/SVG/1.1/DTD/svg11.dtd">
<svg xmlns="http://www.w3.org/2000/svg" version="1.1" xmlns:xl="http://www.w3.org/1999/xlink" xmlns:dc="http://purl.org/dc/elements/1.1/" viewBox="1009 394.0176 286 180" width="286" height="180">
  <defs/>
  <metadata> Produced by OmniGraffle 7.10.2 
    <dc:date>2019-05-09 04:43:12 +0000</dc:date>
  </metadata>
  <g id="Canvas_1" stroke="none" stroke-dasharray="none" fill="none" fill-opacity="1" stroke-opacity="1">
    <title>Canvas 1</title>
    <g id="Canvas_1: Layer 1">
      <title>Layer 1</title>
      <g id="Group_192">
        <g id="Graphic_190">
          <path d="M 1260.0694 403.98266 L 1043.9306 403.98266 C 1036.68 403.98266 1030.7815 408.2658 1030.7815 413.5307 L 1030.7815 448.1019 C 1030.7815 449.53903 1032.387 450.7062 1034.3679 450.7062 C 1036.3489 450.7062 1037.9544 449.53903 1037.9544 448.1019 L 1037.9544 413.5307 C 1037.9544 411.13866 1040.6364 409.19117 1043.9306 409.19117 L 1260.0694 409.19117 C 1263.3655 409.19117 1266.0456 411.13866 1266.0456 413.5307 L 1266.0456 517.6983 C 1266.0456 520.0917 1263.3636 522.03786 1260.0694 522.03786 L 1185.819 522.03786 C 1186.0613 520.8479 1186.1889 519.63104 1186.1889 518.39136 C 1186.1889 517.153 1186.0613 515.9362 1185.819 514.7462 L 1232.3339 514.7462 C 1234.3149 514.7462 1235.9204 513.5804 1235.9204 512.14195 C 1235.9204 505.5366 1243.3208 500.1629 1252.4174 500.1629 C 1254.3984 500.1629 1256.0039 498.9971 1256.0039 497.55864 L 1256.0039 453.2594 C 1256.0039 451.82095 1254.3984 450.65514 1252.4174 450.65514 C 1250.4364 450.65514 1248.831 451.82095 1248.831 453.2594 L 1248.831 495.1518 C 1238.6449 496.28136 1230.573 502.1413 1229.0194 509.5377 L 1183.9342 509.5377 C 1179.0123 500.2099 1166.5567 493.5656 1152 493.5656 C 1137.4433 493.5656 1124.9877 500.2099 1120.0658 509.5377 L 1074.9806 509.5377 C 1073.427 502.1413 1065.3551 496.28136 1055.1691 495.1518 L 1055.1691 436.0772 C 1065.3551 434.94767 1073.427 429.08776 1074.9806 421.69134 L 1229.0194 421.69134 C 1230.5749 429.08776 1238.6449 434.94767 1248.831 436.0772 L 1248.831 441.1138 C 1248.831 442.55226 1250.4383 443.71807 1252.4174 443.71807 C 1254.3984 443.71807 1256.0039 442.55226 1256.0039 441.1138 L 1256.0039 433.6704 C 1256.0039 432.23194 1254.3984 431.06613 1252.4174 431.06613 C 1243.3208 431.06613 1235.9204 425.6924 1235.9204 419.0871 C 1235.9204 417.64863 1234.3149 416.48283 1232.3339 416.48283 L 1071.6661 416.48283 C 1069.6851 416.48283 1068.0796 417.64863 1068.0796 419.0871 C 1068.0796 425.6924 1060.6792 431.06613 1051.5826 431.06613 C 1049.6016 431.06613 1047.9961 432.23194 1047.9961 433.6704 L 1047.9961 497.55864 C 1047.9961 498.9971 1049.6016 500.1629 1051.5826 500.1629 C 1060.6792 500.1629 1068.0796 505.5366 1068.0796 512.14195 C 1068.0796 513.5804 1069.6851 514.7462 1071.6661 514.7462 L 1118.181 514.7462 C 1117.9387 515.9375 1117.8111 517.1544 1117.8111 518.3927 C 1117.8111 519.63104 1117.9387 520.8479 1118.181 522.0392 L 1043.9306 522.0392 C 1040.6345 522.0392 1037.9544 520.0917 1037.9544 517.6983 L 1037.9544 460.21125 C 1037.9544 458.7728 1036.3489 457.607 1034.3679 457.607 C 1032.387 457.607 1030.7815 458.7728 1030.7815 460.21125 L 1030.7815 517.6983 C 1030.7815 522.96325 1036.68 527.2464 1043.9306 527.2464 L 1120.0658 527.2464 C 1121.2755 529.5404 1122.942 531.6705 1124.9822 533.5804 L 1124.9822 561.44824 C 1124.9822 562.3159 1125.5778 563.12576 1126.5692 563.6093 C 1127.5606 564.0928 1128.8184 564.1868 1129.9244 563.8591 L 1152 557.31554 L 1174.0756 563.8591 C 1174.512 563.988 1174.9726 564.0525 1175.4295 564.0525 C 1176.1324 564.0525 1176.8315 563.9021 1177.4308 563.6093 C 1178.4222 563.12576 1179.0178 562.3159 1179.0178 561.44824 L 1179.0178 553.99945 C 1179.0178 552.561 1177.4105 551.3952 1175.4313 551.3952 C 1173.4504 551.3952 1171.8449 552.561 1171.8449 553.99945 L 1171.8449 557.5721 L 1153.3558 552.09225 C 1152.4865 551.8357 1151.5135 551.8357 1150.6442 552.09225 L 1132.1551 557.5721 L 1132.1551 538.59014 C 1137.7559 541.4993 1144.6051 543.21844 1152 543.21844 C 1159.3949 543.21844 1166.2441 541.4993 1171.8449 538.59014 L 1171.8449 541.8297 C 1171.8449 543.26813 1173.4504 544.43394 1175.4313 544.43394 C 1177.4105 544.43394 1179.0178 543.26813 1179.0178 541.8297 L 1179.0178 533.5804 C 1181.058 531.6705 1182.7245 529.5404 1183.9342 527.2464 L 1260.0694 527.2464 C 1267.32 527.2464 1273.2185 522.96325 1273.2185 517.6983 L 1273.2185 413.5307 C 1273.2185 408.2658 1267.32 403.98266 1260.0694 403.98266 L 1260.0694 403.98266 M 1152 538.0099 C 1137.103 538.0099 1124.9822 529.21 1124.9822 518.3927 C 1124.9822 507.57543 1137.103 498.77414 1152 498.77414 C 1166.897 498.77414 1179.0178 507.57543 1179.0178 518.3927 C 1179.0178 529.21 1166.897 538.0099 1152 538.0099" fill="black"/>
        </g>
        <g id="Graphic_189">
          <path d="M 1183.5605 438.3578 C 1185.5415 438.3578 1187.147 437.192 1187.147 435.75353 C 1187.147 434.31507 1185.5415 433.14927 1183.5605 433.14927 L 1120.4395 433.14927 C 1118.4585 433.14927 1116.853 434.31507 1116.853 435.75353 C 1116.853 437.192 1118.4585 438.3578 1120.4395 438.3578 L 1183.5605 438.3578" fill="black"/>
        </g>
        <g id="Graphic_188">
          <path d="M 1207.4691 447.0382 L 1096.5309 447.0382 C 1094.5499 447.0382 1092.9444 448.204 1092.9444 449.64245 C 1092.9444 451.0809 1094.5499 452.2467 1096.5309 452.2467 L 1207.4691 452.2467 C 1209.4501 452.2467 1211.0556 451.0809 1211.0556 449.64245 C 1211.0556 448.204 1209.4501 447.0382 1207.4691 447.0382 L 1207.4691 447.0382" fill="black"/>
        </g>
        <g id="Graphic_187">
          <path d="M 1207.4691 460.9271 L 1096.5309 460.9271 C 1094.5499 460.9271 1092.9444 462.0929 1092.9444 463.5314 C 1092.9444 464.96983 1094.5499 466.13564 1096.5309 466.13564 L 1207.4691 466.13564 C 1209.4501 466.13564 1211.0556 464.96983 1211.0556 463.5314 C 1211.0556 462.0929 1209.4501 460.9271 1207.4691 460.9271 L 1207.4691 460.9271" fill="black"/>
        </g>
        <g id="Graphic_186">
          <path d="M 1207.4691 476.8992 L 1190.2544 476.8992 C 1188.2735 476.8992 1186.668 478.065 1186.668 479.50344 C 1186.668 480.9419 1188.2735 482.1077 1190.2544 482.1077 L 1207.4691 482.1077 C 1209.4501 482.1077 1211.0556 480.9419 1211.0556 479.50344 C 1211.0556 478.065 1209.4501 476.8992 1207.4691 476.8992 L 1207.4691 476.8992" fill="black"/>
        </g>
        <g id="Graphic_185">
          <path d="M 1096.5309 476.8992 C 1094.5499 476.8992 1092.9444 478.065 1092.9444 479.50344 C 1092.9444 480.9419 1094.5499 482.1077 1096.5309 482.1077 L 1113.7456 482.1077 C 1115.7265 482.1077 1117.332 480.9419 1117.332 479.50344 C 1117.332 478.065 1115.7265 476.8992 1113.7456 476.8992 L 1096.5309 476.8992" fill="black"/>
        </g>
        <g id="Graphic_184">
          <path d="M 1152 504.67704 C 1141.5846 504.67704 1133.1114 510.82975 1133.1114 518.3927 C 1133.1114 525.95566 1141.5846 532.1084 1152 532.1084 C 1162.4154 532.1084 1170.8886 525.95566 1170.8886 518.3927 C 1170.8886 510.82975 1162.4154 504.67704 1152 504.67704 M 1152 526.89986 C 1145.5392 526.89986 1140.2843 523.0828 1140.2843 518.3927 C 1140.2843 513.7013 1145.5392 509.88555 1152 509.88555 C 1158.4608 509.88555 1163.7157 513.7013 1163.7157 518.3927 C 1163.7157 523.0828 1158.4608 526.89986 1152 526.89986" fill="black"/>
        </g>
        <g id="Graphic_183">
          <path d="M 1139.8071 479.50344 C 1139.8071 484.3856 1145.2765 488.3571 1152 488.3571 C 1158.7235 488.3571 1164.1929 484.3856 1164.1929 479.50344 C 1164.1929 474.6213 1158.7235 470.6498 1152 470.6498 C 1145.2765 470.6498 1139.8071 474.6213 1139.8071 479.50344 M 1157.0218 479.50344 C 1157.0218 481.51405 1154.7689 483.14994 1152 483.14994 C 1149.2311 483.14994 1146.9782 481.51405 1146.9782 479.50344 C 1146.9782 477.49283 1149.2311 475.85694 1152 475.85694 C 1154.7689 475.85694 1157.0218 477.49283 1157.0218 479.50344" fill="black"/>
        </g>
        <g id="Graphic_191"/>
      </g>
    </g>
  </g>
</svg>
