<svg width="27" height="27" viewBox="0 0 27 27" fill="none" xmlns="http://www.w3.org/2000/svg">
<path d="M23.6277 15.5814V22.7519H19.4505V16.0616C19.4505 14.381 18.8463 13.234 17.3343 13.234C16.1801 13.234 15.4932 14.007 15.191 14.7547C15.0808 15.022 15.0525 15.3941 15.0525 15.7683V22.7519H10.8738C10.8738 22.7519 10.93 11.4208 10.8738 10.2468H15.052V12.0194C15.0435 12.0326 15.0326 12.0469 15.0246 12.0598H15.052V12.0194C15.6071 11.1685 16.5985 9.95303 18.8176 9.95303C21.5668 9.953 23.6277 11.7403 23.6277 15.5814ZM6.50274 4.21875C5.07323 4.21875 4.13818 5.15184 4.13818 6.37891C4.13818 7.57923 5.04615 8.54064 6.4473 8.54064H6.47515C7.93235 8.54064 8.83868 7.57941 8.83868 6.37891C8.81117 5.15184 7.93234 4.21875 6.50274 4.21875ZM4.38639 22.7519H8.56344V10.2468H4.38639V22.7519Z" fill="white"/>
</svg>
