<?xml version="1.0" encoding="UTF-8" standalone="no"?>
<!DOCTYPE svg PUBLIC "-//W3C//DTD SVG 1.1//EN" "http://www.w3.org/Graphics/SVG/1.1/DTD/svg11.dtd">
<svg xmlns="http://www.w3.org/2000/svg" version="1.1" xmlns:xl="http://www.w3.org/1999/xlink" xmlns:dc="http://purl.org/dc/elements/1.1/" viewBox="270 526 286 180" width="286" height="180">
  <defs/>
  <metadata> Produced by OmniGraffle 7.10.2 
    <dc:date>2019-05-09 04:06:40 +0000</dc:date>
  </metadata>
  <g id="Canvas_1" stroke="none" stroke-dasharray="none" fill="none" fill-opacity="1" stroke-opacity="1">
    <title>Canvas 1</title>
    <g id="Canvas_1: Layer 1">
      <title>Layer 1</title>
      <g id="Group_158">
        <g id="Graphic_50">
          <path d="M 371.0326 543.32075 L 379.32246 543.32075 L 379.32246 548.7547 L 371.0326 548.7547 L 371.0326 543.32075" fill="black"/>
        </g>
        <g id="Graphic_49">
          <path d="M 354.4529 543.32075 L 362.74275 543.32075 L 362.74275 548.7547 L 354.4529 548.7547 L 354.4529 543.32075" fill="black"/>
        </g>
        <g id="Graphic_48">
          <path d="M 337.8732 543.32075 L 346.16304 543.32075 L 346.16304 548.7547 L 337.8732 548.7547 L 337.8732 543.32075" fill="black"/>
        </g>
        <g id="Graphic_47">
          <path d="M 429.0616 665.5849 L 437.35145 665.5849 L 437.35145 671.0189 L 429.0616 671.0189 L 429.0616 665.5849" fill="black"/>
        </g>
        <g id="Graphic_46">
          <path d="M 412.4819 665.5849 L 420.77174 665.5849 L 420.77174 671.0189 L 412.4819 671.0189 L 412.4819 665.5849" fill="black"/>
        </g>
        <g id="Graphic_45">
          <path d="M 507.8152 671.0189 L 516.1051 671.0189 C 517.8294 671.01754 519.37366 670.31574 519.9808 669.2571 C 520.588 668.1984 520.1306 667.0044 518.8333 666.25884 L 485.67386 647.24 C 484.1114 646.3445 481.7799 646.3445 480.21745 647.24 L 447.05803 666.25884 C 445.7607 667.0044 445.3033 668.1984 445.9105 669.2571 C 446.51765 670.31574 448.0619 671.01754 449.78623 671.0189 L 458.0761 671.0189 L 458.0761 684.6038 L 375.89804 684.6038 C 393.4411 677.7662 404.19203 665.37795 404.19203 652 C 404.19203 638.62205 393.4411 626.2338 375.89804 619.3962 L 398.6668 619.3962 L 414.13945 627.00324 C 415.97107 627.90404 418.56975 627.66126 419.94194 626.46064 C 421.31617 625.26 420.9458 623.5566 419.11417 622.6571 L 412.4819 619.3962 L 478.8007 619.3962 C 510.849 619.3962 536.8297 602.366 536.8297 581.3585 C 536.8297 560.351 510.849 543.32075 478.8007 543.32075 L 387.6123 543.32075 L 387.6123 548.7547 L 449.06573 548.7547 C 431.52264 555.5923 420.77174 567.98054 420.77174 581.3585 C 420.77174 594.73644 431.52264 607.1247 449.06573 613.9623 L 412.4819 613.9623 L 419.11417 610.70136 C 420.9458 609.8019 421.31617 608.0985 419.94194 606.89785 C 418.56975 605.6972 415.97107 605.45445 414.13945 606.35525 L 398.6668 613.9623 L 346.16304 613.9623 C 314.11474 613.9623 288.13406 630.9925 288.13406 652 C 288.13406 673.0075 314.11474 690.0377 346.16304 690.0377 L 536.8297 690.0377 L 536.8297 684.6038 L 507.8152 684.6038 L 507.8152 671.0189 M 429.0616 581.3585 C 429.0616 563.35186 451.33046 548.7547 478.8007 548.7547 C 506.271 548.7547 528.53986 563.35186 528.53986 581.3585 C 528.53986 599.3651 506.271 613.9623 478.8007 613.9623 C 451.3426 613.9424 429.09195 599.35716 429.0616 581.3585 M 296.4239 652 C 296.4239 633.9934 318.69278 619.3962 346.16304 619.3962 C 373.6333 619.3962 395.90217 633.9934 395.90217 652 C 395.90217 670.0066 373.6333 684.6038 346.16304 684.6038 C 318.70492 684.5839 296.45427 669.9987 296.4239 652 M 499.52536 684.6038 L 487.0906 684.6038 L 487.0906 676.4528 L 478.8007 676.4528 L 478.8007 684.6038 L 466.36594 684.6038 L 466.36594 671.0189 L 499.52536 671.0189 L 499.52536 684.6038 M 503.6703 665.5849 L 460.81643 665.5849 L 482.94565 652.8942 L 505.0749 665.5849 L 503.6703 665.5849" fill="black"/>
        </g>
        <g id="Group_54">
          <g id="Graphic_60">
            <path d="M 470.95627 589.93464 L 463.5735 586.94696 L 464.33604 585.57316 L 464.2489 585.5959 C 463.6154 585.7613 462.94663 585.8431 462.28185 585.8431 C 461.3306 585.8431 460.3832 585.6755 459.5462 585.3468 C 458.1254 584.7878 457.18226 583.8252 456.9974 582.7448 L 455.9401 576.54886 C 455.92226 576.4442 455.93855 576.3431 455.93506 576.2398 L 451.5322 584.1732 C 450.90076 585.3107 451.398 586.425 451.8656 587.5046 C 451.9587 587.7195 454.9679 593.1979 454.9679 593.1979 L 448.96086 598.52505 C 447.7394 599.6082 448.08845 601.13596 449.74186 601.9372 C 450.40664 602.2599 451.18143 602.4151 451.95196 602.4151 C 453.0924 602.4151 454.2183 602.07264 454.94734 601.4252 L 462.1594 595.02975 C 462.91134 594.3639 463.09414 593.49384 462.64967 592.7191 L 462.3417 592.1837 L 465.0863 593.29435 L 464.191 599.75445 C 464.0061 601.0963 465.5141 602.2829 467.5622 602.40476 C 467.6766 602.4115 467.79076 602.4149 467.903 602.4149 C 469.8077 602.4149 471.42996 601.4625 471.60656 600.19554 L 472.7095 592.23156 C 472.8362 591.31056 472.159 590.42074 470.95627 589.93464 Z" fill="black"/>
          </g>
          <g id="Graphic_59">
            <path d="M 466.50904 575.774 L 466.7915 577.42834 L 469.1198 576.8203 C 469.8862 574.77405 468.22567 572.63585 465.134 571.8989 C 462.1832 571.1942 458.97194 572.0105 457.4496 573.7288 C 458.27613 573.17694 459.36884 572.79 460.6327 572.69746 C 463.5615 572.479 466.183 573.861 466.50904 575.774 Z" fill="black"/>
          </g>
          <g id="Graphic_58">
            <path d="M 466.54227 570.2874 C 470.17733 570.2874 473.1228 568.35607 473.1228 565.974 C 473.1228 563.5919 470.17746 561.6604 466.54227 561.6604 C 462.90927 561.6604 459.96367 563.5919 459.96367 565.974 C 459.96367 568.35607 462.90914 570.2874 466.54227 570.2874 Z" fill="black"/>
          </g>
          <g id="Graphic_57">
            <path d="M 508.39176 586.9282 L 488.7165 586.9282 C 487.17516 586.9282 485.9247 587.7473 485.9247 588.7582 L 485.9247 593.8996 C 485.9247 594.9106 487.17516 595.7296 488.7165 595.7296 L 508.3919 595.7296 C 509.9332 595.7296 511.1838 594.9105 511.1838 593.8996 L 511.1838 588.7582 C 511.18364 587.7473 509.9331 586.9282 508.39176 586.9282 Z" fill="black"/>
          </g>
          <g id="Graphic_56">
            <path d="M 486.45647 584.40114 L 497.42424 584.40114 C 498.96556 584.40114 500.2161 583.5822 500.2161 582.57116 L 500.2161 577.9914 C 500.2161 576.9804 498.96556 576.1614 497.42424 576.1614 L 486.45647 576.1614 C 484.91515 576.1614 483.6647 576.98046 483.6647 577.9914 L 483.6647 582.57116 C 483.6647 583.5822 484.91515 584.40114 486.45647 584.40114 Z" fill="black"/>
          </g>
          <g id="Graphic_55">
            <path d="M 505.86595 597.64676 L 481.4047 597.64676 L 481.4047 581.6997 C 481.4047 580.9298 480.45344 580.3055 479.27774 580.3055 L 478.3027 580.3055 L 476.0789 580.3055 C 476.3743 579.8245 476.4049 579.27255 476.0892 578.75256 C 475.437 577.6789 473.57374 577.1609 471.94516 577.5837 L 464.98854 579.4001 L 464.39435 575.9294 C 464.19913 574.7808 462.6184 573.95024 460.8693 574.08304 C 459.11815 574.2117 457.8574 575.2458 458.05467 576.3937 L 459.1121 582.58964 C 459.22223 583.23844 459.7872 583.8158 460.64086 584.1514 C 461.14364 584.34885 461.71055 584.44894 462.28185 584.44894 C 462.68056 584.44894 463.0816 584.39996 463.4617 584.30055 L 470.3939 582.4908 C 470.77915 582.84684 471.3816 583.0942 472.09875 583.0942 L 473.83244 583.0942 L 477.1505 583.0942 L 477.1505 599.0412 C 477.1505 599.8112 478.1019 600.43554 479.2776 600.43554 L 481.87414 600.43554 C 482.1997 601.4902 483.62076 602.2846 485.32653 602.2846 C 487.03204 602.2846 488.4531 601.4901 488.77853 600.43554 L 496.7636 600.43554 C 497.08927 601.4902 498.5101 602.2846 500.216 602.2846 C 501.9214 602.2846 503.3426 601.4901 503.668 600.43554 L 505.8658 600.43554 C 507.0415 600.43554 507.9929 599.8112 507.9929 599.0412 C 507.99305 598.2711 507.04165 597.64676 505.86595 597.64676 Z" fill="black"/>
          </g>
        </g>
        <g id="Group_154">
          <g id="Group_151">
            <g id="Group_152">
              <g id="Graphic_153">
                <path d="M 370.03717 631.9623 L 324.42823 631.9623 C 321.69466 631.9623 319.47073 633.42004 319.47073 635.2119 L 319.47073 645.3416 L 313.81225 649.0507 C 313.62684 649.1722 313.52174 649.33795 313.52174 649.5102 L 313.52174 672.2575 L 315.50474 672.2575 L 315.50474 649.77925 L 319.47073 647.17956 L 319.47073 648.86026 C 319.47073 649.219 319.91492 649.5102 320.46223 649.5102 L 332.2343 649.5102 C 331.79308 650.63 330.2384 651.45995 328.39422 651.45995 L 324.42823 651.45995 C 323.8809 651.45995 323.43673 651.7511 323.43673 652.1099 C 323.43673 654.2962 320.82314 656.0094 317.48773 656.0094 L 317.48773 657.30926 C 318.17583 657.30926 318.83816 657.2501 319.47073 657.1468 L 319.47073 666.4082 C 319.47073 668.2 321.69466 669.6578 324.42823 669.6578 L 327.40272 669.6578 L 327.40272 672.2575 L 329.3857 672.2575 L 329.3857 669.6578 L 345.2497 669.6578 L 345.2497 670.9576 C 345.2497 671.1299 345.3538 671.2956 345.5402 671.4171 L 347.5232 672.717 L 348.9252 671.798 L 347.2327 670.6886 L 347.2327 666.67725 L 349.2157 665.3761 L 349.2157 668.35795 L 351.1987 668.35795 L 351.1987 650.4838 C 351.1987 649.9469 351.865 649.5102 352.68792 649.5102 C 353.5069 649.5102 354.1732 649.9469 354.1732 650.4838 L 354.1732 659.5827 L 354.1732 665.1083 L 356.1562 665.1083 L 356.1562 659.5827 C 356.1562 659.04585 356.82247 658.6091 357.6454 658.6091 C 358.4644 658.6091 359.1307 659.04585 359.1307 659.5827 L 359.1307 665.1083 L 361.1137 665.1083 L 361.1137 659.5827 C 361.1137 659.04585 361.77997 658.6091 362.6029 658.6091 C 363.4219 658.6091 364.08818 659.04585 364.08818 659.5827 L 364.08818 665.1083 L 365.07967 665.1083 L 366.07117 665.1083 L 366.07514 659.5814 C 366.07514 659.0452 366.74143 658.60845 367.5604 658.60845 C 368.3794 658.60845 369.04567 659.0452 369.04567 659.582 L 369.04567 672.2575 L 371.02867 672.2575 L 371.02867 669.59215 C 373.2883 669.2899 374.99466 667.9771 374.99466 666.4082 L 374.99466 635.2119 C 374.99466 633.42004 372.77073 631.9623 370.03717 631.9623 Z M 373.01167 666.4082 C 373.01167 667.2544 372.1798 667.9693 371.02867 668.2384 L 371.02867 659.5827 C 371.02867 658.329 369.473 657.30926 367.5604 657.30926 C 366.58874 657.30926 365.71126 657.5744 365.08166 657.9982 C 364.45106 657.5744 363.5726 657.30926 362.59894 657.30926 C 361.62827 657.30926 360.7518 657.5738 360.1222 657.9962 C 359.4916 657.5738 358.6141 657.30926 357.64145 657.30926 C 357.10802 657.30926 356.6083 657.39505 356.1562 657.5367 L 356.1562 650.4838 C 356.1562 649.2301 354.60052 648.2103 352.68396 648.2103 C 350.77136 648.2103 349.2157 649.2301 349.2157 650.4838 L 349.2157 663.5368 L 345.5392 665.9487 C 345.3538 666.0709 345.2497 666.23595 345.2497 666.4082 L 345.2497 668.35795 L 324.42823 668.35795 C 322.7883 668.35795 321.45373 667.48315 321.45373 666.4082 L 321.45373 656.6288 C 323.57157 655.8417 325.05485 654.43725 325.36123 652.7598 L 328.39422 652.7598 C 331.6751 652.7598 334.3432 651.01086 334.3432 648.86026 C 334.3432 648.5015 333.89902 648.2103 333.3517 648.2103 L 321.45373 648.2103 L 321.45373 645.61065 L 321.45373 635.2119 C 321.45373 634.1369 322.7883 633.2621 324.42823 633.2621 L 370.03717 633.2621 C 371.6771 633.2621 373.01167 634.1369 373.01167 635.2119 L 373.01167 666.4082 Z" fill="black"/>
              </g>
            </g>
          </g>
          <g id="Group_148">
            <g id="Group_149">
              <g id="Graphic_150">
                <path d="M 341.2837 634.56196 L 326.41122 634.56196 C 325.8639 634.56196 325.41972 634.8531 325.41972 635.2119 L 325.41972 638.4615 C 325.41972 638.82025 325.8639 639.1114 326.41122 639.1114 L 341.2837 639.1114 C 341.831 639.1114 342.2752 638.82025 342.2752 638.4615 L 342.2752 635.2119 C 342.2752 634.8531 341.831 634.56196 341.2837 634.56196 Z M 340.2922 637.8116 L 327.40272 637.8116 L 327.40272 635.8618 L 340.2922 635.8618 Z" fill="black"/>
              </g>
            </g>
          </g>
          <g id="Group_145">
            <g id="Group_146">
              <g id="Graphic_147">
                <path d="M 368.05417 634.56196 L 353.1817 634.56196 C 352.6344 634.56196 352.1902 634.8531 352.1902 635.2119 L 352.1902 638.4615 C 352.1902 638.82025 352.6344 639.1114 353.1817 639.1114 L 368.05417 639.1114 C 368.6015 639.1114 369.04567 638.82025 369.04567 638.4615 L 369.04567 635.2119 C 369.04567 634.8531 368.6015 634.56196 368.05417 634.56196 Z M 367.06267 637.8116 L 354.1732 637.8116 L 354.1732 635.8618 L 367.06267 635.8618 Z" fill="black"/>
              </g>
            </g>
          </g>
          <g id="Group_142">
            <g id="Group_143">
              <g id="Graphic_144">
                <path d="M 341.2837 654.05964 L 326.41122 654.05964 C 325.8639 654.05964 325.41972 654.3508 325.41972 654.7096 L 325.41972 657.9592 C 325.41972 658.3179 325.8639 658.6091 326.41122 658.6091 L 341.2837 658.6091 C 341.831 658.6091 342.2752 658.3179 342.2752 657.9592 L 342.2752 654.7096 C 342.2752 654.3508 341.831 654.05964 341.2837 654.05964 Z M 340.2922 657.30926 L 327.40272 657.30926 L 327.40272 655.3595 L 340.2922 655.3595 Z" fill="black"/>
              </g>
            </g>
          </g>
          <g id="Group_139">
            <g id="Group_140">
              <g id="Graphic_141">
                <rect x="346.2412" y="634.56196" width="1.9829975" height="12.348536" fill="black"/>
              </g>
            </g>
          </g>
          <g id="Group_136">
            <g id="Group_137">
              <g id="Graphic_138">
                <rect x="325.41972" y="640.4113" width="10.906486" height="1.2998459" fill="black"/>
              </g>
            </g>
          </g>
          <g id="Group_133">
            <g id="Group_134">
              <g id="Graphic_135">
                <rect x="339.3007" y="640.4113" width="2.9744963" height="1.2998459" fill="black"/>
              </g>
            </g>
          </g>
          <g id="Group_130">
            <g id="Group_131">
              <g id="Graphic_132">
                <rect x="325.41972" y="643.01095" width="10.906486" height="1.2998459" fill="black"/>
              </g>
            </g>
          </g>
          <g id="Group_127">
            <g id="Group_128">
              <g id="Graphic_129">
                <rect x="339.3007" y="643.01095" width="2.9744963" height="1.2998459" fill="black"/>
              </g>
            </g>
          </g>
          <g id="Group_124">
            <g id="Group_125">
              <g id="Graphic_126">
                <rect x="325.41972" y="645.61065" width="10.906486" height="1.2998459" fill="black"/>
              </g>
            </g>
          </g>
          <g id="Group_121">
            <g id="Group_122">
              <g id="Graphic_123">
                <rect x="339.3007" y="645.61065" width="2.9744963" height="1.2998459" fill="black"/>
              </g>
            </g>
          </g>
          <g id="Group_118">
            <g id="Group_119">
              <g id="Graphic_120">
                <rect x="339.3007" y="648.2103" width="2.9744963" height="1.2998459" fill="black"/>
              </g>
            </g>
          </g>
          <g id="Group_115">
            <g id="Group_116">
              <g id="Graphic_117">
                <rect x="339.3007" y="650.81" width="2.9744963" height="1.2998459" fill="black"/>
              </g>
            </g>
          </g>
          <g id="Group_112">
            <g id="Group_113">
              <g id="Graphic_114">
                <rect x="325.41972" y="659.90895" width="10.906486" height="1.2998459" fill="black"/>
              </g>
            </g>
          </g>
          <g id="Group_109">
            <g id="Group_110">
              <g id="Graphic_111">
                <rect x="339.3007" y="659.90895" width="2.9744963" height="1.2998459" fill="black"/>
              </g>
            </g>
          </g>
          <g id="Group_106">
            <g id="Group_107">
              <g id="Graphic_108">
                <rect x="325.41972" y="662.50864" width="10.906486" height="1.2998459" fill="black"/>
              </g>
            </g>
          </g>
          <g id="Group_103">
            <g id="Group_104">
              <g id="Graphic_105">
                <rect x="339.3007" y="662.50864" width="2.9744963" height="1.2998459" fill="black"/>
              </g>
            </g>
          </g>
          <g id="Group_100">
            <g id="Group_101">
              <g id="Graphic_102">
                <rect x="325.41972" y="665.1083" width="10.906486" height="1.2998459" fill="black"/>
              </g>
            </g>
          </g>
          <g id="Group_97">
            <g id="Group_98">
              <g id="Graphic_99">
                <rect x="339.3007" y="665.1083" width="2.9744963" height="1.2998459" fill="black"/>
              </g>
            </g>
          </g>
          <g id="Group_94">
            <g id="Group_95">
              <g id="Graphic_96">
                <rect x="352.1902" y="640.4113" width="10.906486" height="1.2998459" fill="black"/>
              </g>
            </g>
          </g>
          <g id="Group_91">
            <g id="Group_92">
              <g id="Graphic_93">
                <rect x="366.07117" y="640.4113" width="2.9744963" height="1.2998459" fill="black"/>
              </g>
            </g>
          </g>
          <g id="Group_88">
            <g id="Group_89">
              <g id="Graphic_90">
                <rect x="352.1902" y="643.01095" width="10.906486" height="1.2998459" fill="black"/>
              </g>
            </g>
          </g>
          <g id="Group_85">
            <g id="Group_86">
              <g id="Graphic_87">
                <rect x="366.07117" y="643.01095" width="2.9744963" height="1.2998459" fill="black"/>
              </g>
            </g>
          </g>
          <g id="Group_82">
            <g id="Group_83">
              <g id="Graphic_84">
                <rect x="352.1902" y="645.61065" width="10.906486" height="1.2998459" fill="black"/>
              </g>
            </g>
          </g>
          <g id="Group_79">
            <g id="Group_80">
              <g id="Graphic_81">
                <rect x="366.07117" y="645.61065" width="2.9744963" height="1.2998459" fill="black"/>
              </g>
            </g>
          </g>
          <g id="Group_76">
            <g id="Group_77">
              <g id="Graphic_78">
                <rect x="358.1392" y="648.2103" width="4.957494" height="1.2998459" fill="black"/>
              </g>
            </g>
          </g>
          <g id="Group_73">
            <g id="Group_74">
              <g id="Graphic_75">
                <rect x="366.07117" y="648.2103" width="2.9744963" height="1.2998459" fill="black"/>
              </g>
            </g>
          </g>
          <g id="Group_70">
            <g id="Group_71">
              <g id="Graphic_72">
                <rect x="358.1392" y="650.81" width="4.957494" height="1.2998459" fill="black"/>
              </g>
            </g>
          </g>
          <g id="Group_67">
            <g id="Group_68">
              <g id="Graphic_69">
                <rect x="366.07117" y="650.81" width="2.9744963" height="1.2998459" fill="black"/>
              </g>
            </g>
          </g>
          <g id="Group_64">
            <g id="Group_65">
              <g id="Graphic_66">
                <rect x="358.1392" y="653.4097" width="4.957494" height="1.2998459" fill="black"/>
              </g>
            </g>
          </g>
          <g id="Group_61">
            <g id="Group_62">
              <g id="Graphic_63">
                <rect x="366.07117" y="653.4097" width="2.9744963" height="1.2998459" fill="black"/>
              </g>
            </g>
          </g>
        </g>
        <g id="Graphic_157"/>
      </g>
    </g>
  </g>
</svg>
