<svg width="27" height="27" viewBox="0 0 27 27" fill="none" xmlns="http://www.w3.org/2000/svg">
<g clip-path="url(#clip0)">
<path d="M27 3.1964C25.9959 3.73847 24.926 4.09777 23.8106 4.27222C24.9581 3.429 25.8339 2.10395 26.2457 0.506781C25.1758 1.29185 23.9946 1.8464 22.7357 2.15585C21.7198 0.824567 20.2719 0 18.6924 0C15.6279 0 13.1608 3.0614 13.1608 6.8144C13.1608 7.3544 13.1979 7.87362 13.2891 8.36794C8.68725 8.0917 4.6153 5.37716 1.87987 1.242C1.4023 2.26178 1.12218 3.429 1.12218 4.68556C1.12218 7.04494 2.10937 9.13639 3.58087 10.3472C2.69156 10.3265 1.81912 10.0087 1.07999 9.50817C1.07999 9.52895 1.07999 9.55593 1.07999 9.58293C1.07999 12.8936 2.99868 15.6434 5.51474 16.2768C5.06418 16.4285 4.57312 16.5012 4.06349 16.5012C3.70912 16.5012 3.35137 16.4762 3.01556 16.3848C3.73274 19.0828 5.76788 21.0662 8.18775 21.1306C6.3045 22.9438 3.9133 24.0362 1.32468 24.0362C0.870741 24.0362 0.435376 24.0113 0 23.9428C2.45194 25.8888 5.3578 27 8.4915 27C18.6772 27 24.246 16.6154 24.246 7.614C24.246 7.31284 24.2376 7.02208 24.2257 6.73339C25.3243 5.77384 26.2474 4.57547 27 3.1964Z" fill="white"/>
</g>
<defs>
<clipPath id="clip0">
<rect width="27" height="27" fill="white"/>
</clipPath>
</defs>
</svg>
